<svg width="24" height="24" viewBox="0 0 24 24" fill="none" xmlns="http://www.w3.org/2000/svg">
<path d="M11.1694 18.0877C9.56937 18.0806 8.02133 17.5189 6.7891 16.4982C5.55688 15.4775 4.71673 14.0611 4.41186 12.4904C4.10698 10.9197 4.35624 9.29185 5.11716 7.88432C5.87807 6.47679 7.10355 5.37669 8.58472 4.77151C10.0659 4.16633 11.7111 4.09353 13.24 4.56551C14.7688 5.03749 16.0867 6.02504 16.9689 7.35985C17.8512 8.69466 18.2433 10.2941 18.0783 11.8856C17.9134 13.4772 17.2016 14.9622 16.0644 16.0877C15.4209 16.7277 14.657 17.2339 13.8169 17.5772C12.9767 17.9204 12.0769 18.094 11.1694 18.0877V18.0877Z" stroke="black" stroke-width="2"/>
<path d="M16.5938 16.5938L20.8138 20.8138" stroke="black" stroke-width="2" stroke-linecap="round" stroke-linejoin="round"/>
</svg>
