<svg width="170" height="30" viewBox="0 0 170 30" fill="none" xmlns="http://www.w3.org/2000/svg">
<path d="M182.591 -9.14453H-12.5938V30.0002H182.591V-9.14453Z" fill="white"/>
<path d="M16.094 0.845806L23.7959 20.0497L19.5625 20.0465L12.4244 2.25041H12.0914L4.917 20.0267L0.683594 20.0234L8.42506 0.835938L16.094 0.845806Z" fill="black"/>
<path d="M30.7302 12.5035L30.7269 15.8291L43.9877 15.8423L43.9844 20.066L26.4902 20.0495L26.51 0.855469L44.0305 0.871916L44.0272 5.06928L30.7401 5.05613L30.7368 8.27981L37.0935 8.28968L37.0902 12.5134L30.7302 12.5035Z" fill="black"/>
<path d="M51.3259 12.5269L51.3194 20.0763L47.0859 20.073L47.1057 0.878906L51.3391 0.882196L51.3325 8.30325L56.6177 8.30983L59.6279 0.892064L63.8613 0.895354L60.0038 10.4381L63.8679 20.0894L59.6345 20.0861L56.6144 12.5335L51.3259 12.5269Z" fill="black"/>
<path d="M76.8597 5.1066L76.8432 20.1033L72.6362 20.1L72.6527 5.10331L66.0586 5.09673L66.0619 0.873047L83.4802 0.889494L83.4769 5.11318L76.8597 5.1066Z" fill="black"/>
<path d="M121.16 0.928557L125.367 0.931846L125.348 20.0996L121.141 20.0963L121.147 12.5963L109.631 12.5832L109.624 20.1325H105.391L105.41 0.912109L109.644 0.915399L109.637 8.36277L121.154 8.37592L121.16 0.928557Z" fill="black"/>
<path d="M148.922 20.1747L144.688 20.1715L144.708 2.38528H144.375L137.201 20.1649L128.941 20.155L128.961 0.960938L133.195 0.964227L133.175 18.7504H133.534L140.709 0.970806L148.941 0.980675L148.922 20.1747Z" fill="black"/>
<path d="M156.752 12.6363L156.745 20.1857L152.512 20.1824L152.532 0.988281L156.765 0.991571L156.758 8.41262L162.043 8.4192L165.054 1.00144L169.287 1.00473L165.43 10.5475L169.294 20.1988L165.06 20.1955L162.04 12.6429L156.752 12.6363Z" fill="black"/>
<path d="M96.843 1.68178C98.0035 2.18506 99.0223 2.87256 99.8927 3.74427C100.763 4.61599 101.452 5.63243 101.953 6.79033C102.458 7.95151 102.708 9.19822 102.705 10.5272C102.705 11.8594 102.451 13.1028 101.943 14.264C101.439 15.4252 100.75 16.4384 99.8762 17.3068C99.0025 18.1752 97.9837 18.8627 96.8199 19.3627C95.656 19.866 94.4064 20.116 93.0744 20.1127C91.7424 20.1127 90.4928 19.8594 89.329 19.3528C88.1651 18.8495 87.1496 18.162 86.2792 17.2903C85.4088 16.4186 84.7197 15.4022 84.2186 14.2443C83.7141 13.0831 83.4635 11.8364 83.4668 10.5074C83.4668 9.17848 83.7207 7.93177 84.2284 6.77059C84.7329 5.6127 85.422 4.59625 86.2957 3.72783C87.1694 2.85941 88.1882 2.17191 89.3521 1.67191C90.5159 1.16862 91.7655 0.918618 93.0975 0.921907C94.4328 0.925197 95.6824 1.17849 96.843 1.68178Z" fill="black"/>
<path d="M98.5607 5.0625H87.6211V15.977H98.5607V5.0625Z" fill="white"/>
<path d="M102.965 30.0007C102.965 24.5468 98.537 20.1257 93.0705 20.1191C87.604 20.1126 83.1661 24.527 83.1562 29.981L102.965 30.0007Z" fill="#0025FF"/>
<path d="M89.8958 8.97543C90.575 8.97543 91.1256 8.4261 91.1256 7.74846C91.1256 7.07082 90.575 6.52148 89.8958 6.52148C89.2166 6.52148 88.666 7.07082 88.666 7.74846C88.666 8.4261 89.2166 8.97543 89.8958 8.97543Z" fill="black"/>
<path d="M96.2845 8.98129C96.9637 8.98129 97.5143 8.43196 97.5143 7.75432C97.5143 7.07668 96.9637 6.52734 96.2845 6.52734C95.6053 6.52734 95.0547 7.07668 95.0547 7.75432C95.0547 8.43196 95.6053 8.98129 96.2845 8.98129Z" fill="black"/>
</svg>
